<?xml version="1.0" standalone="no"?>
<!DOCTYPE svg PUBLIC "-//W3C//DTD SVG 20010904//EN"
 "http://www.w3.org/TR/2001/REC-SVG-20010904/DTD/svg10.dtd">
<svg version="1.0" xmlns="http://www.w3.org/2000/svg"
 width="16.000000pt" height="16.000000pt" viewBox="0 0 16.000000 16.000000"
 preserveAspectRatio="xMidYMid meet">
<metadata>
Created by potrace 1.11, written by Peter Selinger 2001-2013
</metadata>
<g transform="translate(0.000000,16.000000) scale(0.002000,-0.002000)"
fill="#000000" stroke="none">
<path d="M3638 7156 c-1 -2 -43 -6 -93 -9 -362 -24 -804 -128 -1140 -267 l-73
-31 0 -979 -1 -980 772 4 c425 2 786 6 802 9 17 4 44 8 60 11 475 68 816 341
926 742 12 43 27 120 34 169 12 86 13 326 1 390 -3 17 -8 46 -11 65 -23 140
-81 292 -153 405 -49 77 -171 204 -242 252 -108 73 -289 148 -415 173 -33 6
-69 13 -80 15 -49 10 -109 16 -230 21 -71 3 -135 7 -142 9 -6 2 -13 2 -15 1z"/>
<path d="M6053 6574 c7 -20 13 -54 22 -119 3 -22 8 -51 10 -65 23 -137 23
-518 0 -655 -19 -109 -38 -200 -55 -265 -12 -41 -22 -82 -24 -90 -9 -33 -49
-130 -93 -220 -179 -368 -505 -674 -938 -881 l-105 -50 107 -157 c59 -86 151
-222 206 -302 54 -80 141 -208 193 -285 53 -77 138 -203 191 -280 53 -77 161
-237 241 -355 81 -118 163 -240 184 -270 21 -30 43 -62 48 -70 6 -8 68 -99
138 -202 70 -102 159 -233 197 -290 39 -56 110 -161 159 -233 49 -71 120 -176
158 -233 l70 -102 76 62 c407 332 730 851 888 1427 30 111 68 284 79 366 2 17
9 62 14 101 24 165 32 500 17 694 -32 403 -165 797 -398 1178 -40 64 -76 122
-80 127 -5 6 -36 48 -70 95 -62 87 -176 228 -234 290 -208 222 -389 385 -609
546 -76 56 -270 183 -349 229 -43 25 -48 26 -43 9z"/>
<path d="M1102 5993 c-100 -107 -174 -193 -227 -264 -135 -178 -207 -286 -292
-434 -52 -90 -123 -232 -158 -315 -15 -36 -36 -84 -46 -107 -10 -23 -19 -45
-19 -49 0 -3 -15 -47 -34 -98 -59 -158 -125 -450 -143 -633 -15 -152 -6 -742
12 -773 1 -3 6 -30 9 -61 4 -31 9 -67 11 -80 3 -13 12 -67 21 -119 9 -52 37
-180 64 -285 183 -720 519 -1261 965 -1553 109 -71 324 -159 429 -176 21 -4
41 -8 45 -10 11 -7 159 -18 239 -18 254 -1 454 50 617 157 137 91 225 205 295
379 30 77 75 250 85 331 3 28 8 61 10 75 6 34 19 173 30 310 3 41 8 86 10 100
2 14 6 50 9 81 8 76 40 199 66 249 27 53 73 98 119 117 48 20 160 20 241 -2
67 -17 176 -71 219 -108 65 -56 134 -131 185 -200 74 -100 144 -215 254 -417
197 -363 329 -558 482 -710 208 -207 436 -317 739 -355 55 -7 294 -7 341 0 14
2 38 4 53 4 30 1 60 -45 -516 806 -86 127 -225 334 -311 460 -85 127 -209 311
-276 410 -68 99 -181 268 -253 375 -72 107 -134 197 -137 200 -8 8 -144 213
-149 225 -2 5 -7 12 -10 15 -4 3 -48 66 -98 140 -49 74 -114 171 -144 215
l-54 80 -727 1 -728 1 -1 -706 c0 -388 -3 -719 -5 -736 -10 -64 -48 -173 -82
-235 -65 -116 -163 -194 -297 -236 -59 -18 -230 -26 -300 -14 -85 15 -93 18
-160 51 -115 57 -198 166 -231 306 -17 71 -17 51 -25 3051 0 369 -5 672 -9
672 -4 0 -57 -53 -118 -117z"/>
</g>
</svg>
